<svg xmlns="http://www.w3.org/2000/svg" width="166.282" height="126.145" viewBox="0 0 166.282 126.145">
  <g id="Unión_41" data-name="Unión 41" fill="#fd8377">
    <path d="M 151.2819976806641 125.6452407836914 L 14.99999904632568 125.6452407836914 C 11.12691593170166 125.6452407836914 7.485644817352295 124.1369705200195 4.746957302093506 121.3982772827148 C 2.008269786834717 118.6595916748047 0.4999988377094269 115.0183181762695 0.4999988377094269 111.1452407836914 L 0.4999988377094269 15.00000858306885 C 0.4999988377094269 11.12692546844482 2.008269786834717 7.485654354095459 4.746957302093506 4.74696683883667 C 7.485644817352295 2.008279323577881 11.12691593170166 0.5000085830688477 14.99999904632568 0.5000085830688477 L 151.2819976806641 0.5000085830688477 C 155.1550750732422 0.5000085830688477 158.7963562011719 2.008279323577881 161.5350341796875 4.74696683883667 C 164.2737274169922 7.485654354095459 165.7819976806641 11.12692546844482 165.7819976806641 15.00000858306885 L 165.7819976806641 111.1452407836914 C 165.7819976806641 115.0183181762695 164.2737274169922 118.6595916748047 161.5350341796875 121.3982772827148 C 158.7963562011719 124.1369705200195 155.1550750732422 125.6452407836914 151.2819976806641 125.6452407836914 Z" stroke="none"/>
    <path d="M 15 1.000007629394531 C 11.26045227050781 1.000007629394531 7.744735717773438 2.456268310546875 5.100494384765625 5.100502014160156 C 2.456253051757812 7.744743347167969 1 11.26045989990234 1 15.00000762939453 L 1 111.1452178955078 C 1 114.884765625 2.456253051757812 118.4004821777344 5.100494384765625 121.0447235107422 C 7.744735717773438 123.6889572143555 11.26045227050781 125.1452178955078 15 125.1452178955078 L 151.2819976806641 125.1452178955078 C 155.0215454101562 125.1452178955078 158.5372314453125 123.6889572143555 161.1815032958984 121.0447235107422 C 163.8257446289062 118.4004592895508 165.2819976806641 114.884765625 165.2819976806641 111.1452178955078 L 165.2819976806641 15.00000762939453 C 165.2819976806641 11.26045989990234 163.8257446289062 7.744766235351562 161.1815032958984 5.100502014160156 C 158.5372314453125 2.456268310546875 155.0215454101562 1.000007629394531 151.2819976806641 1.000007629394531 L 15 1.000007629394531 M 15 7.62939453125e-06 L 151.2819976806641 7.62939453125e-06 C 159.5662536621094 7.62939453125e-06 166.2819976806641 6.715721130371094 166.2819976806641 15.00000762939453 L 166.2819976806641 111.1452178955078 C 166.2819976806641 119.4295043945312 159.5662536621094 126.1452178955078 151.2819976806641 126.1452178955078 L 15 126.1452178955078 C 6.715713500976562 126.1452178955078 0 119.4295043945312 0 111.1452178955078 L 0 15.00000762939453 C 0 6.715721130371094 6.715713500976562 7.62939453125e-06 15 7.62939453125e-06 Z" stroke="none" fill="#fefefe"/>
  </g>
</svg>
