<svg xmlns="http://www.w3.org/2000/svg" width="17.911" height="22" viewBox="0 0 17.911 22">
  <path id="archivo-xls" d="M57.156,0H48.32a2.345,2.345,0,0,0-2.342,2.342V11h-.229a.943.943,0,0,0-.943.944v5.722a.943.943,0,0,0,.943.943h.229v1.049A2.344,2.344,0,0,0,48.32,22H60.376a2.344,2.344,0,0,0,2.341-2.342V5.542ZM47.208,12.924h1.03l.347.724c.118.241.206.436.3.659H48.9c.094-.253.171-.43.271-.659l.336-.724h1.024L49.41,14.86l1.178,2.032H49.551l-.359-.718c-.147-.277-.241-.483-.353-.713h-.011c-.083.23-.183.436-.306.713l-.33.718H47.167l1.148-2.008Zm13.168,7.642H48.32a.908.908,0,0,1-.907-.908V18.609H58.652a.943.943,0,0,0,.944-.943V11.944A.943.943,0,0,0,58.652,11H47.413V2.342a.908.908,0,0,1,.907-.906l8.3-.009V4.495a1.624,1.624,0,0,0,1.624,1.624l3.005-.009.034,13.549A.908.908,0,0,1,60.376,20.566Zm-6.825-4.428v.754H51.072V12.924h.9v3.215Zm1.521-.913c-.659-.229-1.09-.595-1.09-1.172,0-.678.565-1.2,1.5-1.2a2.437,2.437,0,0,1,1.013.2l-.2.724a1.89,1.89,0,0,0-.83-.188c-.389,0-.577.177-.577.383,0,.253.224.365.736.559.7.259,1.031.624,1.031,1.184,0,.665-.512,1.23-1.6,1.23a2.6,2.6,0,0,1-1.125-.242l.183-.741a2.288,2.288,0,0,0,.995.247c.412,0,.63-.17.63-.429S55.549,15.4,55.072,15.226Z" transform="translate(-44.806)"/>
</svg>
