<svg xmlns="http://www.w3.org/2000/svg" width="17.911" height="22" viewBox="0 0 17.911 22">
  <g id="archivo-pdf" transform="translate(-44.806)">
    <path id="Trazado_8396" data-name="Trazado 8396" d="M119.614,298c0-.368-.256-.588-.706-.588a1.563,1.563,0,0,0-.374.036v1.182a1.417,1.417,0,0,0,.3.023C119.317,298.652,119.614,298.41,119.614,298Z" transform="translate(-70.365 -283.848)"/>
    <path id="Trazado_8397" data-name="Trazado 8397" d="M194.214,297.681a1.864,1.864,0,0,0-.41.036v2.617a1.637,1.637,0,0,0,.315.018,1.24,1.24,0,0,0,1.353-1.4A1.148,1.148,0,0,0,194.214,297.681Z" transform="translate(-142.205 -284.113)"/>
    <path id="Trazado_8398" data-name="Trazado 8398" d="M57.156,0H48.32a2.345,2.345,0,0,0-2.342,2.342V11H45.75a.943.943,0,0,0-.944.944v5.722a.943.943,0,0,0,.944.943h.229v1.049A2.344,2.344,0,0,0,48.32,22H60.376a2.344,2.344,0,0,0,2.341-2.342V5.542ZM47.281,12.976a7.4,7.4,0,0,1,1.213-.082,1.9,1.9,0,0,1,1.213.318,1.16,1.16,0,0,1,.424.918,1.268,1.268,0,0,1-.365.942,1.841,1.841,0,0,1-1.289.418,2.324,2.324,0,0,1-.306-.017v1.419h-.889Zm13.095,7.59H48.32a.908.908,0,0,1-.907-.908V18.609H58.652a.943.943,0,0,0,.944-.943V11.944A.943.943,0,0,0,58.652,11H47.413V2.342a.908.908,0,0,1,.907-.906l8.3-.009V4.495a1.624,1.624,0,0,0,1.624,1.624l3.005-.009.034,13.549A.908.908,0,0,1,60.376,20.566ZM50.7,16.874v-3.9a8.082,8.082,0,0,1,1.213-.082,2.555,2.555,0,0,1,1.625.424,1.756,1.756,0,0,1,.671,1.5,2.011,2.011,0,0,1-.659,1.607,2.849,2.849,0,0,1-1.831.512A7.768,7.768,0,0,1,50.7,16.874Zm6.426-2.308v.73H55.705v1.6h-.9V12.924H57.23v.736H55.705v.907Z"/>
  </g>
</svg>
