<svg id="Grupo_4181" data-name="Grupo 4181" xmlns="http://www.w3.org/2000/svg" width="91" height="91" viewBox="0 0 91 91">
  <path id="Trazado_1490" data-name="Trazado 1490" d="M0,0H91V91H0Z" fill="none"/>
  <path id="Trazado_1491" data-name="Trazado 1491" d="M39.917,77.833A37.917,37.917,0,1,1,77.833,39.917,37.916,37.916,0,0,1,39.917,77.833Zm0-7.583A30.333,30.333,0,1,0,9.583,39.917,30.333,30.333,0,0,0,39.917,70.25Z" transform="translate(5.583 5.583)" fill="#ff4a4a"/>
  <path id="Trazado_8284" data-name="Trazado 8284" d="M130.088,62.726c-2.873,0-5.047,1.5-5.047,3.921V88.858c0,2.424,2.173,3.918,5.047,3.918,2.8,0,5.047-1.557,5.047-3.918V66.647C135.134,64.283,132.89,62.726,130.088,62.726Z" transform="translate(7.992 -101.464) rotate(45)" fill="#ff4a4a"/>
  <path id="Trazado_9591" data-name="Trazado 9591" d="M130.088,62.726c-2.873,0-5.047,1.5-5.047,3.921V88.858c0,2.424,2.173,3.918,5.047,3.918,2.8,0,5.047-1.557,5.047-3.918V66.647C135.134,64.283,132.89,62.726,130.088,62.726Z" transform="translate(-101.965 82.507) rotate(-45)" fill="#ff4a4a"/>
</svg>
