<svg id="Grupo_4179" data-name="Grupo 4179" xmlns="http://www.w3.org/2000/svg" width="91" height="91" viewBox="0 0 91 91">
  <path id="Trazado_1490" data-name="Trazado 1490" d="M0,0H91V91H0Z" fill="none"/>
  <path id="Trazado_1491" data-name="Trazado 1491" d="M39.917,77.833A37.917,37.917,0,1,1,77.833,39.917,37.916,37.916,0,0,1,39.917,77.833Zm0-7.583A30.333,30.333,0,1,0,9.583,39.917,30.333,30.333,0,0,0,39.917,70.25Z" transform="translate(5.583 5.583)" fill="#49e83c"/>
  <path id="tick" d="M72.081,63.661,53.47,82.272a4.189,4.189,0,0,1-5.924,0l-9.485-9.485a4.189,4.189,0,1,1,5.924-5.924l6.522,6.522L66.156,57.737a4.189,4.189,0,0,1,5.925,5.925Z" transform="translate(-10.07 -24.504)" fill="#49e83c"/>
</svg>
