<svg xmlns="http://www.w3.org/2000/svg" width="30.965" height="46" viewBox="0 0 30.965 46">
  <g id="Trazado_8441" data-name="Trazado 8441" transform="translate(34 -3.62) rotate(90)" fill="#ffd800" stroke-linejoin="bevel">
    <path d="M 39.37282943725586 33.49999618530273 L 7.627180099487305 33.49999618530273 C 6.301849842071533 33.49999618530273 5.143109798431396 32.79926681518555 4.527569770812988 31.62555694580078 C 3.912019968032837 30.45184707641602 3.994420051574707 29.10021781921387 4.747970104217529 28.00996780395508 L 20.62080001831055 5.045027732849121 C 21.28405952453613 4.085427761077881 22.3334903717041 3.535067558288574 23.5 3.535067558288574 C 24.6665096282959 3.535067558288574 25.71594047546387 4.085427761077881 26.37919998168945 5.045027732849121 L 42.25202178955078 28.00996780395508 C 43.00558090209961 29.10021781921387 43.08797836303711 30.45183753967285 42.47243881225586 31.62554740905762 C 41.85689163208008 32.79926681518555 40.69815826416016 33.49999618530273 39.37282943725586 33.49999618530273 Z" stroke="none"/>
    <path d="M 23.5 4.035057067871094 C 22.50012969970703 4.035057067871094 21.60062026977539 4.506797790527344 21.03211975097656 5.329317092895508 L 5.159290313720703 28.29425811767578 C 4.513378143310547 29.22875785827637 4.442760467529297 30.38728713989258 4.970359802246094 31.3933277130127 C 5.497970581054688 32.39937591552734 6.491168975830078 32.99999618530273 7.627170562744141 32.99999618530273 L 39.37281799316406 32.99999618530273 C 40.50881958007812 32.99999618530273 41.50202178955078 32.39937591552734 42.02962875366211 31.39333724975586 C 42.5572395324707 30.38729858398438 42.48661041259766 29.22875785827637 41.8406982421875 28.29425811767578 L 25.96788024902344 5.329317092895508 C 25.39937019348145 4.506797790527344 24.4998607635498 4.035057067871094 23.5 4.035057067871094 M 23.5 3.035060882568359 C 24.74767303466797 3.035060882568359 25.9953441619873 3.610286712646484 26.7905101776123 4.760738372802734 L 42.663330078125 27.72567749023438 C 44.49715042114258 30.37885665893555 42.59807968139648 33.99999618530273 39.37281799316406 33.99999618530273 L 7.627170562744141 33.99999618530273 C 4.401920318603516 33.99999618530273 2.502838134765625 30.37885665893555 4.336658477783203 27.72567749023438 L 20.2094898223877 4.760738372802734 C 21.0046558380127 3.610286712646484 22.25232696533203 3.035060882568359 23.5 3.035060882568359 Z" stroke="none" fill="#fff"/>
  </g>
</svg>
