<svg xmlns="http://www.w3.org/2000/svg" width="88.781" height="98.779" viewBox="0 0 88.781 98.779">
  <g id="union_46" data-name="union 46" transform="translate(-107.51 -14.4)" fill="#ffd800">
    <path d="M 117.5244369506836 112.678840637207 C 115.09326171875 112.678840637207 112.6801300048828 111.7020034790039 110.9037780761719 109.9987869262695 C 109.0376586914062 108.2094955444336 108.0099411010742 105.7822036743164 108.0099411010742 103.1640319824219 L 108.0099411010742 24.41464424133301 C 108.0099411010742 21.79669761657715 109.037727355957 19.36947059631348 110.9039535522461 17.58007049560547 C 112.680419921875 15.87675094604492 115.0934906005859 14.8998441696167 117.5244216918945 14.8998441696167 C 119.1743316650391 14.8998441696167 120.7574081420898 15.32719039916992 122.2296905517578 16.17003059387207 L 191.0106658935547 55.54471206665039 C 194.0039215087891 57.25823211669922 195.7909240722656 60.34033584594727 195.7909240722656 63.78933715820312 C 195.7909240722656 67.23833465576172 194.0039215087891 70.32044219970703 191.0106658935547 72.03396606445312 L 122.2296905517578 111.4086608886719 C 120.7574081420898 112.2514801025391 119.1743392944336 112.678840637207 117.5244369506836 112.678840637207 Z" stroke="none"/>
    <path d="M 117.5244293212891 15.39984130859375 C 115.2212219238281 15.39984130859375 112.9342803955078 16.32605743408203 111.25 17.94097137451172 C 109.4830474853516 19.63518524169922 108.5099334716797 21.93424224853516 108.5099334716797 24.41464233398438 L 108.5099334716797 103.1640243530273 C 108.5099334716797 105.6446533203125 109.4829711914062 107.9437866210938 111.2498168945312 109.6378707885742 C 112.9339752197266 111.252685546875 115.2209777832031 112.178825378418 117.5244140625 112.178825378418 C 119.0860900878906 112.178825378418 120.5855865478516 111.7737121582031 121.9812774658203 110.9747314453125 L 190.7622680664062 71.60003662109375 C 193.5979614257812 69.97669982910156 195.2909240722656 67.05680847167969 195.2909240722656 63.78932571411133 C 195.2909240722656 60.52185821533203 193.5979614257812 57.60196685791016 190.7622680664062 55.9786376953125 L 121.9812774658203 16.60394287109375 C 120.5855865478516 15.80495452880859 119.0860900878906 15.39984130859375 117.5244293212891 15.39984130859375 M 117.5244293212891 14.39984130859375 C 119.1781158447266 14.39984130859375 120.8753204345703 14.81855773925781 122.4780883789062 15.736083984375 L 191.2590637207031 55.11078643798828 C 197.9682006835938 58.95151519775391 197.9682006835938 68.62715148925781 191.2590637207031 72.4678955078125 L 122.4780883789062 111.8425827026367 C 115.8115539550781 115.6589584350586 107.5099334716797 110.8457412719727 107.5099334716797 103.1640243530273 L 107.5099334716797 24.41464233398438 C 107.5099334716797 18.57976531982422 112.2997131347656 14.39984130859375 117.5244293212891 14.39984130859375 Z" stroke="none" fill="#fefefe"/>
  </g>
</svg>
