<svg xmlns="http://www.w3.org/2000/svg" width="75.833" height="75.833" viewBox="0 0 75.833 75.833">
  <path id="Unión_85" data-name="Unión 85" d="M0,37.917A37.917,37.917,0,1,1,37.917,75.833,37.916,37.916,0,0,1,0,37.917Zm7.583,0A30.333,30.333,0,1,0,37.917,7.583,30.333,30.333,0,0,0,7.583,37.917Zm24.826,17.53a5.005,5.005,0,1,1,5.007,5A5.013,5.013,0,0,1,32.409,55.447Zm-.04-13.931V19.3c0-2.422,2.174-3.921,5.046-3.921,2.8,0,5.046,1.557,5.046,3.921V41.516c0,2.362-2.244,3.918-5.046,3.918C34.543,45.434,32.369,43.94,32.369,41.516Z" fill="#ffbe2c"/>
</svg>
